<?xml version="1.0"?>
<svg width="315" height="315" xmlns="http://www.w3.org/2000/svg" xmlns:svg="http://www.w3.org/2000/svg" version="1.1">
 <g class="layer">
  <title>Layer 1</title>
  <path d="m157.7,373.33c-6.73,-4.21 -14.43,-9.98 -22.84,-17.19c-8.18,-7.21 -16.23,-15.74 -24.05,-25.72c-7.81,-9.85 -14.18,-21.39 -19.11,-34.73c-4.81,-13.1 -7.33,-27.88 -7.33,-44.34c0,-8.3 0.96,-16.23 2.88,-23.44c-3.61,0.84 -7.46,1.56 -11.55,1.92c-4.08,0.24 -8.05,0.48 -12.38,0.48c-16.23,0 -31.01,-2.4 -44.12,-7.21c-12.98,-4.92 -24.64,-11.29 -34.74,-18.87c-10.1,-7.68 -18.76,-15.74 -25.73,-24.02c-6.98,-8.3 -12.87,-15.87 -17.31,-22.72c3.73,-6.25 9.37,-13.46 16.59,-21.75c7.09,-8.42 15.75,-16.35 25.96,-24.28c9.98,-7.93 21.77,-14.3 34.99,-19.59c13.11,-5.29 28.01,-7.93 44.36,-7.93c4.21,0 8.3,0.36 12.38,1.08c4.09,0.6 7.94,1.44 11.55,2.4c-1.92,-7.44 -2.88,-15.38 -2.88,-24.03c0,-16.22 2.4,-31 7.33,-44.23c4.81,-13.1 11.18,-24.75 19.11,-34.73c7.7,-9.97 15.75,-18.5 24.05,-25.72c8.41,-7.2 15.99,-12.85 22.84,-17.18c6.26,3.85 13.47,9.26 21.76,16.47c8.42,6.96 16.48,15.5 24.29,25.71c7.94,9.98 14.42,21.75 19.59,35.09c5.3,13.47 7.94,28.25 7.94,44.59c0,7.81 -1.32,15.86 -3.97,24.52c8.42,-2.65 16.6,-3.97 24.53,-3.97c16.23,0 31.02,2.64 44.24,7.93c13.11,5.17 24.89,11.66 34.98,19.59c10.11,7.82 18.76,15.86 25.98,24.28c7.21,8.17 12.62,15.5 16.71,21.75c-4.33,6.73 -9.98,14.3 -17.19,22.72c-7.22,8.16 -15.75,16.22 -25.98,24.02c-9.97,7.58 -21.63,13.83 -34.73,18.87c-12.99,4.81 -27.78,7.21 -44.01,7.21c-4.32,0 -8.54,-0.12 -12.51,-0.48c-4.09,-0.24 -8.05,-0.96 -12.02,-1.92c2.65,7.82 3.97,15.62 3.97,23.44c0,16.34 -2.64,31.24 -7.94,44.58c-5.05,13.46 -11.65,25.12 -19.59,35.33c-7.69,9.98 -15.87,18.63 -24.29,25.6c-8.17,6.98 -15.5,12.5 -21.76,16.47zm0.96,-240.36c10.11,-9.85 18.4,-20.43 24.53,-32.08c6.25,-11.54 9.38,-24.28 9.38,-38.46c0,-12.62 -2.17,-24.15 -6.74,-34.25c-4.32,-10.09 -9.25,-18.51 -14.91,-25.24c-5.52,-6.73 -9.85,-11.17 -13.22,-13.82c-3.48,2.53 -8.17,7.09 -13.94,14.06c-5.65,6.85 -10.58,15.14 -14.91,25.24c-4.21,9.86 -6.38,21.27 -6.38,34.01c0,10.1 2.29,19.82 6.86,29.44c4.57,9.25 9.62,17.67 15.39,25c5.77,7.09 10.45,12.5 13.94,16.1zm-95.82,59.13c9.63,0 19.24,-2.16 28.61,-6.61c9.27,-4.21 17.56,-9.25 24.66,-14.78c7.2,-5.53 12.62,-10.09 16.23,-13.82c-8.78,-10.1 -18.88,-18.39 -30.66,-24.88c-11.42,-6.49 -24.53,-9.85 -38.84,-9.85c-12.74,0 -24.16,2.28 -34.26,6.85c-10.1,4.56 -18.63,9.61 -25.25,15.14c-6.73,5.53 -11.42,9.98 -14.06,13.34c2.88,3.6 7.69,8.05 14.3,13.7c6.38,5.53 14.79,10.34 25.01,14.54c9.98,4.21 21.4,6.37 34.26,6.37zm189.96,0c12.62,0 24.05,-2.04 33.9,-6.37c9.98,-4.09 18.28,-9.01 25.02,-14.54c6.72,-5.53 11.41,-10.1 14.06,-13.7c-2.65,-3.24 -7.34,-7.69 -14.06,-13.34c-6.74,-5.4 -14.91,-10.58 -25.02,-15.14c-9.73,-4.57 -21.16,-6.85 -33.9,-6.85c-13.95,0 -26.81,3.12 -38.23,9.37c-11.42,6.13 -22.12,14.3 -32.34,24.88c3.6,3.61 9.01,8.17 16.23,13.94c7.09,5.77 15.39,10.81 24.88,15.14c9.51,4.33 19.24,6.61 29.46,6.61zm-95.1,133.75c3.25,-2.64 7.7,-7.32 13.22,-13.93c5.54,-6.73 10.47,-15.14 14.91,-25.24c4.45,-10.09 6.74,-21.52 6.74,-34.37c0,-15.26 -3.61,-28.72 -10.82,-40.74c-7.1,-11.9 -14.91,-21.63 -23.57,-29.2c-3.48,3.48 -8.17,9.01 -13.94,16.22c-5.66,7.21 -10.58,15.38 -15.15,24.75c-4.33,9.14 -6.62,18.87 -6.62,28.97c0,12.74 2.05,24.16 6.38,34.37c4.33,9.98 9.14,18.39 14.91,24.99c5.77,6.38 10.46,11.18 13.94,14.18zm0,0" fill="rgb(238%,26%,31%)" fill-rule="nonzero" id="svg_4" transform="rotate(45, 157.577, 157.409)"/>
 </g>

</svg>
